#define sprouter_splashscreen_width 128
#define sprouter_splashscreen_height 64
static unsigned char sprouter_splashscreen_bits[] = {
   0x00, 0x00, 0x00, 0x00, 0x00, 0x00, 0x00, 0x00, 0x00, 0x00, 0x00, 0x00,
   0x00, 0x00, 0x00, 0x00, 0x00, 0x00, 0x00, 0x00, 0x00, 0x00, 0x00, 0x00,
   0x00, 0x00, 0x00, 0x00, 0x00, 0x00, 0x00, 0x00, 0x00, 0x00, 0x00, 0x00,
   0x00, 0x00, 0x00, 0x00, 0x00, 0x00, 0x00, 0x00, 0x00, 0x00, 0x00, 0x00,
   0x00, 0x2e, 0x00, 0x00, 0xe0, 0xff, 0x01, 0x00, 0x00, 0x00, 0x00, 0x00,
   0x00, 0x00, 0x00, 0x00, 0xc0, 0xc1, 0x01, 0x00, 0x80, 0x87, 0x07, 0x00,
   0x00, 0x00, 0x00, 0x1c, 0x00, 0x00, 0x00, 0x00, 0xc0, 0x80, 0x01, 0x00,
   0x00, 0x07, 0x0f, 0x00, 0x00, 0x00, 0x00, 0x1e, 0x00, 0x00, 0x00, 0x00,
   0xe0, 0x00, 0x01, 0x00, 0x80, 0x07, 0x0f, 0x00, 0x00, 0x00, 0x00, 0x1c,
   0x00, 0x00, 0x00, 0x00, 0xe0, 0x00, 0x00, 0x00, 0x80, 0x07, 0x0f, 0x00,
   0x00, 0x00, 0x00, 0x1e, 0x00, 0x00, 0x00, 0x00, 0xe0, 0x03, 0xe0, 0x73,
   0x00, 0x07, 0x1e, 0xf0, 0x80, 0x8f, 0x0f, 0xff, 0x80, 0x07, 0x7c, 0x1e,
   0xe0, 0x1f, 0xc0, 0xc7, 0x81, 0x07, 0x0f, 0x1c, 0x07, 0x0f, 0x0f, 0x1c,
   0xe0, 0x38, 0xf0, 0x10, 0xe0, 0xff, 0x80, 0x83, 0x03, 0x07, 0x0f, 0x0e,
   0x0e, 0x0e, 0x0e, 0x1e, 0x70, 0x38, 0xf0, 0x10, 0xc0, 0xff, 0xc1, 0x83,
   0x87, 0x87, 0x03, 0x0e, 0x1e, 0x0f, 0x0f, 0x1c, 0x70, 0x78, 0x70, 0x00,
   0x00, 0xfe, 0x83, 0x83, 0x07, 0xff, 0x01, 0x0f, 0x1e, 0x0e, 0x0e, 0x1e,
   0x78, 0x70, 0xf8, 0x00, 0x00, 0xf0, 0xc3, 0x83, 0x87, 0xc7, 0x03, 0x0f,
   0x1e, 0x0f, 0x0f, 0x1c, 0xf8, 0x7f, 0x70, 0x00, 0x00, 0xc0, 0x83, 0x83,
   0x07, 0x87, 0x07, 0x0f, 0x1e, 0x0e, 0x0e, 0x1e, 0x78, 0x00, 0x70, 0x00,
   0x20, 0x80, 0xc3, 0x83, 0x87, 0x87, 0x07, 0x0f, 0x1e, 0x0f, 0x0f, 0x1c,
   0x78, 0x00, 0x70, 0x00, 0x20, 0x80, 0x83, 0x83, 0x03, 0x07, 0x0f, 0x0e,
   0x1e, 0x0e, 0x0e, 0x1e, 0x70, 0x40, 0x70, 0x00, 0x60, 0x80, 0xc1, 0x87,
   0x83, 0x07, 0x0e, 0x1e, 0x0e, 0x0e, 0x0f, 0x1c, 0xf1, 0x60, 0x70, 0x00,
   0xe0, 0xe0, 0x80, 0xc7, 0x01, 0x07, 0x1e, 0x1c, 0x07, 0x9e, 0x0f, 0x1c,
   0xe1, 0x10, 0x78, 0x00, 0x80, 0x5e, 0xc0, 0xf3, 0xe0, 0x3f, 0x7c, 0xe0,
   0x01, 0x38, 0x3e, 0xf8, 0x80, 0x0f, 0xfc, 0x01, 0x00, 0x00, 0x80, 0x03,
   0x00, 0x00, 0x00, 0x00, 0x00, 0x00, 0x00, 0x00, 0x00, 0x00, 0x00, 0x00,
   0x00, 0x00, 0xc0, 0x03, 0x00, 0x00, 0x00, 0x00, 0x00, 0x00, 0x00, 0x00,
   0x00, 0x00, 0x00, 0x00, 0x00, 0x00, 0x80, 0x03, 0x00, 0x00, 0x00, 0x00,
   0x00, 0x00, 0x00, 0x00, 0x00, 0x00, 0x00, 0x00, 0x00, 0x00, 0xc0, 0x03,
   0x00, 0x00, 0x00, 0x00, 0x00, 0x00, 0x00, 0x00, 0x00, 0x00, 0x00, 0x00,
   0x00, 0x00, 0xe0, 0x0f, 0x00, 0x00, 0x00, 0x00, 0x00, 0x00, 0x00, 0x00,
   0x00, 0x00, 0x00, 0x00, 0x00, 0x00, 0x00, 0x00, 0x00, 0x00, 0x00, 0x00,
   0x00, 0x00, 0x00, 0x00, 0xff, 0x3f, 0x00, 0x00, 0x00, 0x00, 0x00, 0x00,
   0x00, 0x00, 0x00, 0x00, 0x00, 0x00, 0x00, 0x80, 0x01, 0x60, 0x00, 0x00,
   0x00, 0x00, 0x00, 0x00, 0x00, 0x00, 0x00, 0x00, 0x00, 0x00, 0x00, 0x80,
   0xff, 0x7f, 0x00, 0x00, 0x00, 0x00, 0x00, 0x00, 0x00, 0x00, 0x00, 0x00,
   0x00, 0x00, 0x00, 0x80, 0x00, 0x40, 0x00, 0x00, 0x00, 0x00, 0x00, 0x00,
   0x00, 0x00, 0x00, 0x00, 0x00, 0x00, 0x00, 0x80, 0xc0, 0x40, 0x00, 0x00,
   0x00, 0x00, 0x00, 0x00, 0x00, 0x00, 0x00, 0x00, 0x00, 0x00, 0x00, 0xfc,
   0x20, 0x41, 0x00, 0x00, 0x00, 0x00, 0x00, 0x00, 0x00, 0x00, 0x00, 0x00,
   0x00, 0x00, 0xc0, 0xff, 0x20, 0x41, 0x00, 0x00, 0x00, 0x00, 0x00, 0x00,
   0x00, 0x00, 0x00, 0x00, 0x00, 0x00, 0x70, 0xfc, 0xc0, 0x40, 0x00, 0x00,
   0x00, 0x00, 0x00, 0x00, 0x00, 0x00, 0x00, 0x00, 0x00, 0x00, 0x18, 0x80,
   0x00, 0x40, 0x00, 0x00, 0x00, 0x00, 0x00, 0x00, 0x00, 0x00, 0x00, 0x00,
   0x00, 0x00, 0x0e, 0x80, 0xff, 0x7f, 0x00, 0x00, 0x00, 0x00, 0x00, 0x00,
   0x00, 0x00, 0x00, 0x00, 0x00, 0x80, 0x03, 0x00, 0xfe, 0x1f, 0x00, 0x00,
   0x00, 0x00, 0x00, 0x00, 0x00, 0x00, 0x00, 0x00, 0x00, 0xe0, 0x00, 0x00,
   0xfa, 0x17, 0x00, 0x00, 0x00, 0x00, 0x00, 0x00, 0x00, 0x00, 0x00, 0x00,
   0x00, 0x00, 0x00, 0x00, 0x02, 0x10, 0x00, 0x00, 0x00, 0x00, 0x00, 0x00,
   0x00, 0x00, 0x00, 0x00, 0x00, 0x00, 0x00, 0x00, 0x02, 0x10, 0x00, 0x00,
   0x00, 0x00, 0x00, 0x00, 0x00, 0x00, 0x00, 0x00, 0x00, 0x00, 0x00, 0x00,
   0x02, 0x10, 0x00, 0x00, 0x00, 0x00, 0x00, 0x00, 0x00, 0x00, 0x00, 0x00,
   0x00, 0x00, 0x00, 0x00, 0x02, 0x10, 0x00, 0x00, 0x44, 0x20, 0x13, 0x10,
   0x01, 0x00, 0x00, 0x00, 0x00, 0x00, 0x00, 0x00, 0x02, 0x10, 0x00, 0x00,
   0xc4, 0x20, 0x13, 0x10, 0x01, 0x00, 0x00, 0x00, 0x00, 0x00, 0x00, 0x00,
   0x02, 0x10, 0x00, 0x00, 0x44, 0x20, 0x12, 0x10, 0x19, 0x47, 0x00, 0x00,
   0x00, 0x00, 0x00, 0x00, 0x02, 0x10, 0x00, 0x00, 0xfc, 0xa0, 0x1a, 0xb0,
   0x25, 0x41, 0x00, 0x00, 0x00, 0x00, 0x00, 0x00, 0x02, 0x10, 0x00, 0x00,
   0x44, 0xc0, 0x08, 0xa0, 0x7c, 0x01, 0x00, 0x00, 0x00, 0x00, 0x00, 0x00,
   0x02, 0x10, 0x00, 0x00, 0xc4, 0xc4, 0x4c, 0xe0, 0x04, 0x49, 0x00, 0x00,
   0x00, 0x00, 0x00, 0x00, 0x02, 0x10, 0x00, 0x00, 0x44, 0xcc, 0x4c, 0xc0,
   0x38, 0x49, 0x00, 0x00, 0x00, 0x00, 0x00, 0x00, 0x02, 0x10, 0x00, 0x00,
   0x00, 0x00, 0x00, 0x00, 0x00, 0x00, 0x00, 0x00, 0x00, 0x00, 0x00, 0x00,
   0x02, 0x10, 0x00, 0x00, 0x00, 0x00, 0x00, 0x00, 0x00, 0x00, 0x00, 0x00,
   0x00, 0x00, 0x00, 0x00, 0x02, 0x10, 0x00, 0x00, 0x00, 0x00, 0x00, 0x00,
   0x00, 0x00, 0x00, 0x00, 0x00, 0x00, 0x00, 0x00, 0x06, 0x18, 0x00, 0x00,
   0x00, 0x00, 0x00, 0x00, 0x00, 0x00, 0x00, 0x00, 0x00, 0x00, 0x00, 0x00,
   0xfe, 0x1f, 0x00, 0x00, 0x00, 0x01, 0x00, 0x00, 0x00, 0x00, 0x00, 0x00,
   0x00, 0x00, 0x00, 0x00, 0x3c, 0x0f, 0x00, 0x00, 0x3c, 0x01, 0x00, 0x00,
   0x00, 0x00, 0x88, 0x00, 0x00, 0x00, 0x00, 0x00, 0x20, 0x01, 0x00, 0x00,
   0x04, 0x00, 0x00, 0x00, 0x00, 0x00, 0x88, 0x00, 0x00, 0x00, 0x00, 0x00,
   0x20, 0x01, 0x00, 0x00, 0x04, 0xb9, 0x37, 0x49, 0xc7, 0x19, 0x88, 0x8c,
   0x23, 0x00, 0x00, 0x00, 0xf0, 0x03, 0x00, 0x00, 0x3c, 0x89, 0x2c, 0x2d,
   0x48, 0x24, 0xd8, 0x92, 0x20, 0x00, 0x00, 0x00, 0x50, 0x02, 0x00, 0x00,
   0x04, 0x89, 0x64, 0x25, 0x4f, 0x3c, 0x50, 0xbe, 0x00, 0x00, 0x00, 0x00,
   0x50, 0x02, 0x00, 0x00, 0x04, 0x89, 0x24, 0x33, 0x49, 0x06, 0x70, 0x82,
   0x24, 0x00, 0x00, 0x00, 0xf0, 0x03, 0x00, 0x00, 0x04, 0x89, 0x24, 0x32,
   0x4f, 0x38, 0x60, 0x9c, 0x24, 0x00, 0x00, 0x00, 0x00, 0x00, 0x00, 0x00,
   0x00, 0x00, 0x00, 0x00, 0x00, 0x00, 0x00, 0x00, 0x00, 0x00, 0x00, 0x00,
   0x00, 0x00, 0x00, 0x00, 0x00, 0x00, 0x00, 0x00, 0x00, 0x00, 0x00, 0x00,
   0x00, 0x00, 0x00, 0x00, 0x00, 0x00, 0x00, 0x00, 0x00, 0x00, 0x00, 0x00,
   0x00, 0x00, 0x00, 0x00, 0x00, 0x00, 0x00, 0x00, 0x00, 0x00, 0x00, 0x00,
   0x00, 0x00, 0x00, 0x00, 0x00, 0x00, 0x00, 0x00, 0x00, 0x00, 0x00, 0x00,
   0x00, 0x00, 0x00, 0x00 };
